<svg aria-hidden="true" style="position: absolute; width: 0; height: 0; overflow: hidden;" version="1.1" xmlns="http://www.w3.org/2000/svg" xmlns:xlink="http://www.w3.org/1999/xlink">
<defs>
<symbol id="icon-Group-1" viewBox="0 0 30 32">
<path d="M29.859 22.098l-8.443-8.505 0.937-4.615c0.225 0.090 0.485 0.144 0.758 0.146h0.007c1.192 0.014 2.17-0.941 2.184-2.133s-0.941-2.17-2.133-2.184c-1.192-0.014-2.17 0.941-2.184 2.133-0 0.008-0 0.017-0 0.026 0 0.259 0.046 0.508 0.13 0.738l-0.005-0.015-4.96 0.605-8.091-8.133c-0.096-0.098-0.229-0.159-0.376-0.16h-0c-0.146 0.001-0.278 0.060-0.373 0.155l-1.513 1.504c-0.208 0.208-0.208 0.546 0 0.754l0.814 0.826c-3.153 5.798-2.129 12.978 2.519 17.663 0.043 0.041 0.092 0.074 0.146 0.098-0.032 0.164-0.051 0.353-0.052 0.546v6.188h-6.4c-1.472 0.002-2.665 1.195-2.667 2.667v1.067c0 0.295 0.239 0.533 0.533 0.533h24.533c0.295 0 0.533-0.239 0.533-0.533v-1.067c-0.002-1.472-1.195-2.665-2.667-2.667h-6.4v-2.742c0.915 0.201 1.968 0.317 3.047 0.32h0.002c2.58-0.003 5.005-0.663 7.117-1.822l-0.077 0.039 0.818 0.823c0.099 0.101 0.235 0.159 0.377 0.16 0.146-0.001 0.278-0.060 0.373-0.155l1.513-1.504c0.208-0.208 0.208-0.546 0-0.754zM22.366 6.233c0.418-0.415 1.093-0.414 1.508 0.004s0.414 1.093-0.004 1.508c-0.193 0.192-0.459 0.31-0.752 0.31-0 0-0 0-0 0h-0.003c-0.589-0.003-1.064-0.483-1.061-1.072 0.002-0.294 0.122-0.559 0.314-0.751l0-0h-0.002zM21.11 9.738l-0.598 2.946-1.175-1.182 1.774-1.763zM20.504 8.836l-1.92 1.909-1.485-1.493 3.405-0.415zM23.090 28.8c0.884 0 1.6 0.716 1.6 1.6v0.533h-23.467v-0.533c0-0.884 0.716-1.6 1.6-1.6h20.267zM15.623 26.667v1.067h-5.333v-1.067h5.333zM10.29 25.6v-4.053c0-1.294 1.196-2.347 2.667-2.347s2.667 1.053 2.667 2.347v4.053h-5.333zM16.69 23.904v-2.357c0-1.882-1.675-3.413-3.733-3.413-0.017-0-0.038-0-0.058-0-1.353 0-2.54 0.707-3.213 1.771l-0.009 0.016c-4.058-4.274-4.971-10.645-2.279-15.887l18.602 18.708c-1.823 0.947-3.98 1.502-6.266 1.502-1.079 0-2.128-0.124-3.136-0.357l0.093 0.018zM27.979 23.22l-21.057-21.181 0.755-0.752 7.935 7.98c0.004 0 0.006 0.007 0.010 0.010l13.115 13.191-0.757 0.752z"></path>
<path d="M12.961 20.267h-0.005c-0.884-0.001-1.601 0.714-1.602 1.598s0.714 1.601 1.598 1.602h0.005c0.884 0.001 1.601-0.714 1.602-1.598s-0.714-1.601-1.598-1.602zM13.335 22.245c-0.096 0.096-0.229 0.155-0.376 0.155-0.001 0-0.001 0-0.002 0h0c-0.295-0.002-0.532-0.242-0.531-0.536 0.002-0.292 0.238-0.529 0.53-0.531h0c0.295 0.002 0.532 0.241 0.53 0.536-0.001 0.147-0.061 0.279-0.157 0.375l-0 0h0.005z"></path>
</symbol>
<symbol id="icon-clock-1-1" viewBox="0 0 32 32">
<path d="M31.297 15.301c-0.002-8.452-6.855-15.303-15.308-15.301s-15.303 6.855-15.301 15.308c0.001 6.658 4.307 12.551 10.649 14.576 0.061 0.019 0.124 0.029 0.187 0.029 0.126-0 0.245-0.035 0.346-0.095l-0.003 0.002c0.134-0.080 0.234-0.204 0.282-0.352l0.001-0.005 3.865-12.25c1.057-0.005 1.909-0.866 1.903-1.923s-0.866-1.909-1.923-1.903c-0.299 0.001-0.581 0.072-0.831 0.196l0.011-0.005-5.106-5.107c-0.253-0.245-0.657-0.238-0.902 0.016-0.239 0.247-0.239 0.639 0 0.886l5.103 5.109c-0.392 0.799-0.168 1.764 0.536 2.309l-3.683 11.673c-7.278-2.681-11.004-10.754-8.323-18.032s10.754-11.004 18.032-8.323c7.278 2.681 11.004 10.754 8.323 18.032-1.345 3.581-4.003 6.406-7.374 7.938l-0.088 0.036-0.398-1.874c-0.073-0.344-0.411-0.565-0.756-0.492-0.114 0.025-0.213 0.077-0.293 0.149l0.001-0.001-3.837 3.426c-0.263 0.234-0.287 0.637-0.052 0.9 0.076 0.085 0.174 0.149 0.283 0.184l4.899 1.563c0.335 0.108 0.694-0.077 0.802-0.412 0.019-0.058 0.031-0.126 0.031-0.195 0-0.047-0.005-0.092-0.015-0.136l0.001 0.004-0.391-1.839c5.664-2.388 9.342-7.942 9.329-14.089zM15.992 14.664c0.352 0 0.638 0.286 0.638 0.638s-0.286 0.638-0.638 0.638c-0.352 0-0.638-0.285-0.638-0.638s0.285-0.638 0.638-0.638zM18.093 29.528l2.184-1.948 0.603 2.84-2.787-0.892z"></path>
<path d="M15.354 3.185v1.275c0 0.352 0.285 0.638 0.638 0.638s0.638-0.285 0.638-0.638v-1.275c0-0.352-0.286-0.638-0.638-0.638s-0.638 0.286-0.638 0.638zM3.876 14.664c-0.352 0-0.638 0.286-0.638 0.638s0.285 0.638 0.638 0.638h1.275c0.352 0 0.638-0.285 0.638-0.638s-0.285-0.638-0.638-0.638h-1.275zM28.108 15.939c0.352 0 0.638-0.285 0.638-0.638s-0.285-0.638-0.638-0.638h-1.275c-0.352 0-0.638 0.286-0.638 0.638s0.286 0.638 0.638 0.638h1.275z"></path>
</symbol>
<symbol id="icon-diagram-1-1" viewBox="0 0 32 32">
<path d="M14.926 14.965h1.066v4.798h-1.066v-4.797zM19.19 17.097h1.066v2.665h-1.066v-2.665zM10.661 18.696h1.066v1.066h-1.066v-1.066zM7.463 18.163h1.066v1.599h-1.066v-1.599z"></path>
<path d="M1.599 28.291h25.587c0.883 0 1.599-0.716 1.599-1.599v-2.132c0-0.883-0.716-1.599-1.599-1.599h-0.533v-13.293l3.028-2.868c0.703 0.346 1.553 0.136 2.013-0.499s0.396-1.508-0.152-2.068c-0.548-0.56-1.42-0.644-2.065-0.198s-0.873 1.292-0.542 2.002l-2.281 2.163v-1.23c0-0.883-0.716-1.599-1.599-1.599h-21.322c-0.883 0-1.599 0.716-1.599 1.599v15.992h-0.533c-0.883 0-1.599 0.716-1.599 1.599v2.132c0 0.883 0.716 1.599 1.599 1.599zM30.384 4.837c0.294 0 0.533 0.239 0.533 0.533s-0.239 0.533-0.533 0.533c-0.294 0-0.533-0.239-0.533-0.533s0.239-0.533 0.533-0.533zM3.198 6.969c0-0.294 0.239-0.533 0.533-0.533h21.322c0.294 0 0.533 0.239 0.533 0.533v2.239l-1.066 1.013v-2.186c0-0.294-0.239-0.533-0.533-0.533h-19.19c-0.294 0-0.533 0.239-0.533 0.533v13.326c0 0.294 0.239 0.533 0.533 0.533h19.19c0.294 0 0.533-0.239 0.533-0.533v-9.674l1.066-1.010v12.284h-22.388v-15.992zM7.996 13.899c-0.721-0.002-1.354 0.478-1.546 1.174s0.105 1.433 0.725 1.801c0.62 0.368 1.41 0.276 1.928-0.226l1.853 0.93c0.069 0.035 0.151 0.056 0.238 0.056 0.158 0 0.3-0.069 0.398-0.178l0-0.001 3.939-4.431 3.872 2.901c0.088 0.066 0.199 0.106 0.32 0.106 0.142 0 0.271-0.056 0.367-0.146l-0 0 3.365-3.188v8.131h-18.124v-12.26h18.124v2.66l-3.771 3.572-3.904-2.927c-0.222-0.166-0.534-0.135-0.718 0.072l-3.993 4.493-1.493-0.746c0.010-0.056 0.017-0.123 0.020-0.19l0-0.003c0-0.883-0.716-1.599-1.599-1.599zM8.529 15.498c0 0.294-0.239 0.533-0.533 0.533s-0.533-0.239-0.533-0.533c0-0.294 0.239-0.533 0.533-0.533s0.533 0.239 0.533 0.533zM11.727 24.027h5.331v0.533c0 0.294-0.239 0.533-0.533 0.533h-4.264c-0.294 0-0.533-0.239-0.533-0.533v-0.533zM1.066 24.56c0-0.294 0.239-0.533 0.533-0.533h9.062v0.533c0 0.883 0.716 1.599 1.599 1.599h4.264c0.883 0 1.599-0.716 1.599-1.599v-0.533h9.062c0.294 0 0.533 0.239 0.533 0.533v2.132c0 0.294-0.239 0.533-0.533 0.533h-25.587c-0.294 0-0.533-0.239-0.533-0.533v-2.132z"></path>
</symbol>
<symbol id="icon-astronaut-1-1" viewBox="0 0 32 32">
<path d="M31.974 4.524c-0.064-0.191-0.227-0.332-0.427-0.362l-0.003-0-1.91-0.278-0.855-1.731c-0.179-0.365-0.777-0.365-0.956 0l-0.855 1.731-1.91 0.278c-0.203 0.030-0.367 0.171-0.43 0.359l-0.001 0.004c-0.062 0.193-0.011 0.405 0.135 0.547l1.383 1.348-0.326 1.903c-0.034 0.2 0.048 0.402 0.212 0.522 0.087 0.064 0.196 0.102 0.313 0.102 0.091 0 0.177-0.023 0.252-0.063l-0.003 0.001 1.709-0.899 1.709 0.899c0.078 0.041 0.164 0.061 0.249 0.061 0.11 0 0.221-0.034 0.314-0.102 0.134-0.098 0.22-0.254 0.22-0.431 0-0.032-0.003-0.063-0.008-0.094l0 0.003-0.326-1.903 1.383-1.348c0.099-0.097 0.161-0.233 0.161-0.382 0-0.059-0.009-0.115-0.027-0.168l0.001 0.004zM29.511 5.851c-0.099 0.097-0.161 0.232-0.161 0.382 0 0.032 0.003 0.063 0.008 0.094l-0-0.003 0.191 1.114-1-0.526c-0.072-0.039-0.157-0.061-0.248-0.061-0 0-0 0-0.001 0h0c-0.085 0-0.17 0.020-0.249 0.061l-1.001 0.526 0.191-1.114c0.005-0.027 0.008-0.058 0.008-0.090 0-0.15-0.062-0.285-0.161-0.382l-0.81-0.789 1.119-0.163c0.177-0.026 0.324-0.137 0.4-0.289l0.001-0.003 0.5-1.013 0.5 1.013c0.078 0.157 0.228 0.267 0.402 0.292l1.119 0.163-0.809 0.789zM26.134 20.522h-1.067v1.067h1.067v-1.067zM26.134 22.656h-1.067v1.067h1.067v-1.067zM27.2 21.589h-1.067v1.067h1.067v-1.067zM25.067 21.589h-1.067v1.067h1.067v-1.067zM22.4 26.389h-1.067v1.067h1.067v-1.067zM22.4 28.522h-1.067v1.067h1.067v-1.067zM23.467 27.456h-1.067v1.067h1.067v-1.067zM21.333 27.456h-1.067v1.067h1.067v-1.067zM16 24.256h-1.067v1.067h1.067v-1.067zM16 26.389h-1.067v1.067h1.067v-1.067zM17.067 25.322h-1.067v1.067h1.067v-1.067zM14.933 25.322h-1.067v1.067h1.067v-1.067zM5.867 6.122h-1.067v1.067h1.067v-1.067zM5.867 8.255h-1.067v1.067h1.067v-1.067z"></path>
<path d="M6.933 7.189h-1.067v1.067h1.067v-1.067zM4.8 7.189h-1.067v1.067h1.067v-1.067z"></path>
<path d="M24.715 14.159c-0.287-0.388-0.709-0.637-1.188-0.705-0.481-0.068-0.956 0.058-1.34 0.352l-1.252 0.96-1.898 1.417-1.358-0.541c2.421-1.086 4.114-3.508 4.114-6.32 0-3.823-3.123-6.933-6.961-6.933s-6.961 3.11-6.961 6.933c0 1.386 0.414 2.674 1.12 3.758l-2.769-0.024c-0.009 0-0.015 0.004-0.023 0.005-0.056 0.003-0.109 0.014-0.159 0.032l0.004-0.001c-0.013 0.005-0.026 0.008-0.038 0.013-0.006 0.003-0.013 0.003-0.019 0.006l-3.233 1.596c-0.001 0-0.001 0-0.001 0.001l-1.893 0.911c-0.024 0.011-0.045 0.023-0.064 0.036l0.001-0.001c-0.755 0.502-1.012 1.489-0.598 2.295 0.22 0.429 0.595 0.745 1.056 0.889 0.161 0.052 0.347 0.083 0.539 0.083h0c0.29 0 0.577-0.071 0.839-0.211l1.388-0.738 2.264-1.169 1.357-0.008-5.442 5.416c-0.001 0.001-0.001 0.001-0.002 0.001l-1.339 1.333c-0.316 0.315-0.49 0.732-0.49 1.178s0.174 0.863 0.49 1.179c0.325 0.323 0.752 0.485 1.179 0.485s0.854-0.162 1.18-0.485l1.314-1.309 1.741-1.3 0.901 0.897-1.762 1.754c-0 0.001-0.001 0.001-0.002 0.001l-1.339 1.333c-0.316 0.315-0.49 0.732-0.49 1.178s0.174 0.863 0.49 1.179c0.325 0.323 0.753 0.485 1.18 0.485s0.855-0.162 1.18-0.485l3.482-3.467c0.001-0.001 0.001-0.001 0.001-0.002l1.010-1-0.004-0.004c0.006-0.006 0.015-0.009 0.022-0.015l5.166-5.658 3.471 0.494c0.022 0.003 0.048 0.005 0.073 0.005 0.001 0 0.001 0 0.002 0h-0c0.065 0 0.127-0.015 0.187-0.038 0.018-0.006 0.033-0.015 0.050-0.023 0.019-0.010 0.039-0.015 0.058-0.027l3.213-2.133c0.012-0.008 0.018-0.021 0.029-0.029 0.013-0.010 0.029-0.014 0.041-0.026l1.271-1.191c0.662-0.62 0.753-1.635 0.212-2.362zM2.13 17.77c-0.173 0.093-0.37 0.111-0.558 0.052-0.187-0.058-0.338-0.186-0.427-0.358-0.161-0.314-0.068-0.695 0.214-0.902l1.314-0.632 0.449 1.312-0.992 0.528zM5.628 15.942l-1.548 0.8-0.439-1.283 2.027-1.001-0.040 1.484zM20.727 9.322c0 0.918-0.219 1.785-0.599 2.559l-4.181-1.899c-0.044-0.573-0.341-1.075-0.788-1.388l1.464-4.86c2.378 0.756 4.105 2.974 4.105 5.588zM8.938 9.322c0-3.235 2.644-5.867 5.894-5.867 0.253 0 0.5 0.021 0.745 0.052l-1.432 4.754c-0.019-0.001-0.037-0.006-0.057-0.006-1.033 0-1.873 0.837-1.873 1.867s0.84 1.867 1.873 1.867c0.694 0 1.294-0.383 1.618-0.945l3.862 1.755c-1.075 1.446-2.795 2.39-4.737 2.39-3.25 0-5.894-2.632-5.894-5.867zM14.894 10.122c0 0.441-0.362 0.8-0.806 0.8s-0.806-0.359-0.806-0.8c0-0.441 0.362-0.8 0.806-0.8s0.806 0.359 0.806 0.8zM2.465 25.146c-0.236 0.234-0.619 0.234-0.854 0.001-0.114-0.114-0.176-0.263-0.176-0.423s0.062-0.309 0.176-0.421l0.962-0.958 0.851 0.848-0.959 0.955zM5.679 28.88c-0.236 0.234-0.619 0.235-0.855 0.001-0.114-0.114-0.176-0.263-0.176-0.423s0.062-0.309 0.176-0.421l0.963-0.959 0.852 0.848-0.96 0.955zM9.16 25.411c-0.001 0-0.001 0-0.002 0.001l-1.765 1.76-0.852-0.848 1.763-1.756c0.001-0.001 0.001-0.001 0.002-0.001 0.040-0.040 0.065-0.088 0.090-0.135 0.007-0.014 0.020-0.026 0.026-0.040 0.017-0.041 0.019-0.085 0.026-0.129 0.003-0.025 0.014-0.047 0.014-0.073 0-0.036-0.013-0.070-0.020-0.106-0.006-0.032-0.006-0.065-0.019-0.095-0.020-0.050-0.055-0.094-0.091-0.138-0.010-0.012-0.014-0.027-0.025-0.038h-0.001c-0.001-0-0.001-0.002-0.001-0.002l-1.607-1.6c-0.017-0.017-0.039-0.024-0.058-0.038-0.028-0.022-0.055-0.042-0.087-0.058-0.030-0.015-0.061-0.024-0.093-0.033-0.034-0.010-0.067-0.017-0.103-0.020-0.033-0.002-0.063 0.001-0.095 0.005-0.036 0.004-0.069 0.009-0.104 0.020-0.034 0.011-0.063 0.027-0.094 0.045-0.020 0.011-0.042 0.015-0.061 0.029l-1.773 1.324-0.901-0.897 2.399-2.386 4.361 4.289-0.928 0.919zM15.979 18.394c-0.015-0.002-0.030 0.004-0.045 0.003-0.008-0-0.017-0.001-0.026-0.001-0.031 0-0.062 0.003-0.092 0.008l0.003-0c-0.030 0.005-0.059 0.011-0.088 0.021-0.034 0.012-0.065 0.028-0.097 0.047s-0.059 0.039-0.084 0.062l0-0c-0.013 0.011-0.028 0.017-0.040 0.029l-4.698 5.146-4.328-4.257 2.833-2.818c0.209-0.208 0.21-0.546 0.002-0.755-0.105-0.105-0.243-0.157-0.381-0.156v-0.001l-2.219 0.013 0.028-1.607 3.104 0.027c1.265 1.294 3.029 2.101 4.981 2.101 0.437 0 0.864-0.045 1.279-0.123 0.040 0.032 0.079 0.065 0.13 0.085l2.41 0.96 0.331 1.644-3.003-0.427zM20.020 18.572l-0.313-1.558 1.446-1.080 0.947 1.257-2.080 1.381zM23.774 15.741l-0.838 0.785-0.931-1.236 0.831-0.637c0.155-0.119 0.351-0.168 0.543-0.143 0.193 0.027 0.364 0.128 0.48 0.284 0.217 0.292 0.18 0.699-0.085 0.947z"></path>
<path d="M13.602 18.544l-2.143-2.133c-0.207-0.207-0.545-0.207-0.753 0l-2.142 2.133c-0.097 0.097-0.157 0.23-0.157 0.378v0c0 0.142 0.056 0.278 0.157 0.378l2.142 2.133c0.104 0.103 0.241 0.155 0.377 0.155s0.273-0.052 0.376-0.155l2.143-2.133c0.097-0.097 0.157-0.23 0.157-0.378v-0c0-0.142-0.057-0.278-0.157-0.378zM11.083 20.303l-1.387-1.381 1.387-1.381 1.387 1.381-1.387 1.381zM17.164 5.071l-0.258 1.036c0.071 0.018 1.738 0.452 1.738 2.149h1.067c-0-2.017-1.666-2.965-2.547-3.185zM19.711 9.322h-1.067v1.067h1.067v-1.067z"></path>
</symbol>
<symbol id="icon-WebStudio-1-1" viewBox="0 0 232 32">
<path fill="royalblue" d="M13.27 0.947h5.283l3.328 9.776 3.328-9.776h5.325l-5.034 13.437 3.744 9.443 8.362-22.963h6.24l-12.022 29.536h-4.826l-5.117-12.397-5.117 12.397h-4.826l-11.939-29.536h6.157l8.403 22.963 3.661-9.443-4.95-13.437zM55.007 30.816c-1.747 0-3.328-0.291-4.742-0.874-1.414-0.61-2.621-1.428-3.619-2.454s-1.775-2.219-2.33-3.578c-0.527-1.359-0.79-2.787-0.79-4.285 0-1.553 0.264-3.009 0.79-4.368 0.527-1.387 1.29-2.593 2.288-3.619 0.998-1.054 2.205-1.886 3.619-2.496 1.442-0.61 3.051-0.915 4.826-0.915s3.356 0.305 4.742 0.915c1.414 0.61 2.607 1.428 3.578 2.454 0.998 1.026 1.747 2.219 2.246 3.578 0.527 1.359 0.79 2.773 0.79 4.243 0 0.36-0.014 0.707-0.042 1.040 0 0.333-0.028 0.61-0.083 0.832h-16.848c0.083 0.86 0.291 1.622 0.624 2.288s0.763 1.234 1.29 1.706c0.527 0.472 1.123 0.832 1.789 1.082s1.359 0.374 2.080 0.374c1.109 0 2.149-0.264 3.12-0.79 0.998-0.555 1.678-1.276 2.038-2.163l4.784 1.331c-0.804 1.664-2.094 3.037-3.869 4.118-1.747 1.054-3.841 1.581-6.282 1.581zM60.664 17.67c-0.139-1.636-0.749-2.94-1.83-3.91-1.054-0.998-2.344-1.498-3.869-1.498-0.749 0-1.456 0.139-2.122 0.416-0.661 0.262-1.228 0.628-1.708 1.084l0.002-0.002c-0.499 0.472-0.915 1.040-1.248 1.706-0.305 0.666-0.485 1.4-0.541 2.205h11.315zM83.446 30.816c-1.664 0-3.148-0.374-4.451-1.123s-2.33-1.775-3.078-3.078v3.786h-4.867v-30.368h5.574v12.397c0.776-1.331 1.789-2.357 3.037-3.078 1.276-0.749 2.759-1.123 4.451-1.123 1.414 0 2.704 0.305 3.869 0.915s2.163 1.428 2.995 2.454c0.86 1.026 1.511 2.232 1.955 3.619 0.471 1.387 0.707 2.843 0.707 4.368 0 1.581-0.264 3.051-0.79 4.41-0.499 1.359-1.206 2.552-2.122 3.578-0.915 0.998-1.997 1.789-3.245 2.371s-2.593 0.874-4.035 0.874zM81.907 26.074c0.887 0 1.706-0.166 2.454-0.499 0.749-0.36 1.387-0.832 1.914-1.414s0.929-1.262 1.206-2.038c0.305-0.776 0.458-1.608 0.458-2.496s-0.139-1.733-0.416-2.538c-0.277-0.804-0.68-1.512-1.206-2.122-0.499-0.61-1.096-1.096-1.789-1.456s-1.456-0.541-2.288-0.541c-1.248 0-2.371 0.416-3.37 1.248-0.971 0.804-1.72 1.803-2.246 2.995v5.2c0.194 0.555 0.471 1.054 0.832 1.498 0.388 0.444 0.818 0.832 1.29 1.165 0.471 0.305 0.984 0.555 1.539 0.749 0.555 0.166 1.095 0.25 1.622 0.25z"></path>
<path d="M116.8 8.602c-0.194-0.194-0.555-0.458-1.082-0.79-0.499-0.333-1.123-0.652-1.872-0.957-0.721-0.333-1.512-0.61-2.371-0.832-0.785-0.211-1.686-0.333-2.616-0.333-0.002 0-0.003 0-0.005 0h0c-1.581 0-2.76 0.291-3.536 0.874s-1.165 1.4-1.165 2.454c0 0.61 0.139 1.123 0.416 1.539 0.305 0.388 0.735 0.735 1.29 1.040s1.248 0.582 2.080 0.832c0.86 0.25 1.844 0.513 2.954 0.79 1.442 0.388 2.746 0.804 3.91 1.248 1.192 0.444 2.191 0.998 2.995 1.664 0.832 0.666 1.47 1.47 1.914 2.413 0.444 0.915 0.666 2.052 0.666 3.411 0 1.581-0.305 2.94-0.915 4.077-0.582 1.109-1.387 2.011-2.413 2.704-0.998 0.693-2.163 1.206-3.494 1.539-1.304 0.305-2.676 0.458-4.118 0.458-2.219 0-4.41-0.333-6.573-0.998s-4.105-1.608-5.824-2.829l2.538-4.95c0.25 0.25 0.693 0.582 1.331 0.998 0.666 0.388 1.442 0.79 2.33 1.206 0.887 0.388 1.872 0.721 2.954 0.998s2.191 0.416 3.328 0.416c3.162 0 4.742-1.012 4.742-3.037 0-0.638-0.18-1.179-0.541-1.622s-0.874-0.832-1.539-1.165-1.47-0.638-2.413-0.915c-0.943-0.277-1.997-0.582-3.162-0.915-1.414-0.388-2.649-0.804-3.702-1.248-1.026-0.472-1.886-1.012-2.579-1.622-0.693-0.638-1.22-1.359-1.581-2.163-0.333-0.832-0.499-1.816-0.499-2.954 0-1.498 0.277-2.829 0.832-3.994s1.317-2.136 2.288-2.912c0.998-0.776 2.149-1.359 3.453-1.747 1.303-0.416 2.704-0.624 4.202-0.624 2.080 0 3.994 0.333 5.741 0.998 1.747 0.638 3.272 1.4 4.576 2.288l-2.538 4.659zM138.242 29.277c-0.749 0.333-1.664 0.666-2.746 0.998s-2.219 0.499-3.411 0.499c-0.777 0-1.512-0.097-2.205-0.291-0.666-0.194-1.262-0.499-1.789-0.915-0.499-0.444-0.901-0.998-1.206-1.664-0.305-0.693-0.458-1.525-0.458-2.496v-12.522h-2.87v-4.285h2.87v-7.072h5.574v7.072h4.576v4.285h-4.576v10.65c0 0.776 0.194 1.331 0.582 1.664 0.416 0.305 0.915 0.458 1.498 0.458s1.151-0.097 1.706-0.291c0.555-0.194 0.998-0.36 1.331-0.499l1.123 4.41zM149.049 30.816c-2.246 0-3.952-0.721-5.117-2.163s-1.747-3.578-1.747-6.406v-13.645h5.574v12.438c0 3.356 1.206 5.034 3.619 5.034 1.082 0 2.122-0.319 3.12-0.957 1.026-0.666 1.858-1.664 2.496-2.995v-13.52h5.575v15.392c0 0.582 0.096 0.998 0.291 1.248 0.221 0.25 0.568 0.388 1.040 0.416v4.742c-0.555 0.111-1.027 0.18-1.414 0.208-0.297 0.025-0.645 0.040-0.996 0.042h-0.003c-0.998 0-1.817-0.222-2.455-0.666-0.61-0.472-0.971-1.109-1.082-1.914l-0.125-1.747c-0.971 1.498-2.219 2.621-3.744 3.37s-3.203 1.123-5.034 1.123zM178.384 30.816c-1.498 0-2.885-0.291-4.16-0.874s-2.371-1.387-3.286-2.413c-0.915-1.026-1.637-2.219-2.163-3.578-0.499-1.387-0.749-2.87-0.749-4.451s0.235-3.051 0.707-4.41c0.499-1.359 1.179-2.552 2.038-3.578s1.886-1.83 3.078-2.413c1.192-0.582 2.496-0.874 3.91-0.874 1.608 0 3.051 0.388 4.326 1.165 1.304 0.776 2.315 1.789 3.037 3.037v-12.397h5.574v23.962c0 0.582 0.098 0.998 0.291 1.248s0.526 0.388 0.998 0.416v4.742c-0.971 0.194-1.762 0.291-2.371 0.291-0.998 0-1.816-0.25-2.454-0.749s-0.998-1.151-1.082-1.955l-0.125-1.373c-0.805 1.387-1.899 2.44-3.286 3.162-1.358 0.693-2.787 1.040-4.285 1.040zM179.84 26.074c0.526 0 1.067-0.083 1.622-0.25 0.555-0.194 1.067-0.458 1.539-0.79s0.888-0.721 1.248-1.165c0.389-0.444 0.68-0.929 0.874-1.456v-5.2c-0.235-0.639-0.559-1.191-0.964-1.673l0.007 0.009c-0.389-0.527-0.846-0.971-1.373-1.331-0.466-0.367-1.002-0.675-1.58-0.901l-0.043-0.015c-0.555-0.222-1.109-0.333-1.664-0.333-0.832 0-1.608 0.18-2.33 0.541-0.693 0.36-1.29 0.86-1.789 1.498-0.499 0.61-0.888 1.317-1.165 2.122-0.264 0.74-0.416 1.594-0.416 2.483 0 0.005 0 0.009 0 0.014v-0.001c0 0.915 0.152 1.761 0.458 2.538s0.722 1.456 1.248 2.038 1.15 1.040 1.872 1.373c0.749 0.333 1.566 0.499 2.454 0.499zM197.418 30.4v-21.798h5.574v21.798h-5.574zM197.418 5.565v-5.533h5.574v5.533h-5.574zM219.336 30.816c-1.776 0-3.37-0.305-4.784-0.915s-2.621-1.428-3.619-2.454c-0.971-1.054-1.72-2.26-2.246-3.619-0.528-1.359-0.79-2.787-0.79-4.285 0-1.525 0.262-2.968 0.79-4.326 0.526-1.359 1.275-2.552 2.246-3.578 0.998-1.054 2.205-1.886 3.619-2.496s3.008-0.915 4.784-0.915c1.774 0 3.355 0.305 4.742 0.915 1.414 0.61 2.606 1.442 3.578 2.496 0.998 1.026 1.76 2.219 2.288 3.578 0.526 1.359 0.79 2.801 0.79 4.326 0 1.498-0.264 2.926-0.79 4.285-0.528 1.359-1.277 2.565-2.246 3.619-0.971 1.026-2.163 1.844-3.578 2.454s-3.010 0.915-4.784 0.915zM213.637 19.542c0 0.971 0.138 1.858 0.416 2.662 0.304 0.776 0.707 1.456 1.206 2.038 0.526 0.582 1.136 1.040 1.83 1.373 0.693 0.305 1.442 0.458 2.246 0.458 0.803 0 1.552-0.152 2.246-0.458 0.693-0.333 1.29-0.79 1.789-1.373 0.526-0.582 0.928-1.276 1.206-2.080 0.304-0.804 0.458-1.692 0.458-2.662 0-0.943-0.154-1.816-0.458-2.621-0.278-0.804-0.68-1.498-1.206-2.080-0.499-0.582-1.096-1.026-1.789-1.331-0.694-0.333-1.443-0.499-2.246-0.499-0.805 0-1.554 0.166-2.246 0.499-0.694 0.333-1.304 0.79-1.83 1.373-0.499 0.582-0.902 1.276-1.206 2.080-0.278 0.804-0.416 1.678-0.416 2.621z"></path>
</symbol>
<symbol id="icon-WebStudio-2" viewBox="0 0 230 32">
<path fill="royalblue" d="M13.187 0.947h5.325l3.37 9.776 3.411-9.776h5.283l-5.075 13.437 3.744 9.402 8.362-22.922h6.24l-11.814 29.536h-4.95l-5.2-12.397-5.158 12.397h-4.95l-11.773-29.536h6.157l8.403 22.922 3.661-9.402-5.034-13.437zM54.763 30.816c-1.747 0-3.328-0.291-4.742-0.874-1.414-0.61-2.621-1.428-3.619-2.454-0.998-1.054-1.775-2.246-2.33-3.578-0.527-1.359-0.79-2.787-0.79-4.285 0-2.080 0.458-3.98 1.373-5.699 0.943-1.72 2.274-3.092 3.994-4.118 1.747-1.054 3.799-1.581 6.157-1.581 2.385 0 4.423 0.527 6.115 1.581 1.692 1.026 2.981 2.399 3.869 4.118 0.915 1.692 1.373 3.522 1.373 5.491 0 0.333-0.014 0.68-0.042 1.040-0.028 0.333-0.056 0.61-0.083 0.832h-16.848c0.111 1.109 0.43 2.080 0.957 2.912 0.555 0.832 1.248 1.47 2.080 1.914 0.86 0.416 1.775 0.624 2.746 0.624 1.109 0 2.149-0.264 3.12-0.79 0.998-0.555 1.678-1.276 2.038-2.163l4.784 1.331c-0.527 1.109-1.29 2.094-2.288 2.954-0.971 0.86-2.122 1.539-3.453 2.038-1.331 0.472-2.801 0.707-4.41 0.707zM49.064 17.754h11.398c-0.111-1.109-0.43-2.066-0.957-2.87-0.499-0.832-1.165-1.47-1.997-1.914-0.832-0.472-1.761-0.707-2.787-0.707-0.998 0-1.914 0.236-2.746 0.707-0.804 0.444-1.47 1.082-1.997 1.914-0.499 0.804-0.804 1.761-0.915 2.87zM83.202 30.816c-1.664 0-3.148-0.374-4.451-1.123s-2.33-1.775-3.078-3.078v3.786h-4.867v-30.368h5.574v12.397c0.777-1.304 1.789-2.33 3.037-3.078 1.276-0.749 2.76-1.123 4.451-1.123 1.414 0 2.704 0.305 3.869 0.915 1.165 0.582 2.163 1.4 2.995 2.454 0.86 1.054 1.512 2.26 1.955 3.619 0.472 1.359 0.707 2.815 0.707 4.368s-0.263 3.009-0.79 4.368c-0.499 1.359-1.206 2.565-2.122 3.619-0.915 1.026-1.997 1.83-3.245 2.413-1.22 0.555-2.565 0.832-4.035 0.832zM81.663 26.074c0.888 0 1.692-0.166 2.413-0.499 0.749-0.36 1.387-0.832 1.914-1.414 0.555-0.582 0.971-1.262 1.248-2.038 0.29-0.738 0.458-1.592 0.458-2.486 0-0.004 0-0.007 0-0.011v0.001c0-1.192-0.25-2.288-0.749-3.286-0.471-1.026-1.137-1.844-1.997-2.454-0.832-0.61-1.816-0.915-2.954-0.915-0.804 0-1.581 0.194-2.33 0.582-0.721 0.36-1.373 0.86-1.955 1.498-0.555 0.638-0.998 1.359-1.331 2.163v5.2c0.166 0.555 0.43 1.054 0.79 1.498 0.388 0.444 0.832 0.832 1.331 1.165 0.499 0.305 1.012 0.555 1.539 0.749 0.555 0.166 1.096 0.25 1.622 0.25z"></path>
<path d="M116.557 8.602c-0.194-0.194-0.555-0.458-1.082-0.79-0.499-0.333-1.123-0.652-1.872-0.957-0.721-0.305-1.511-0.568-2.371-0.79-0.785-0.238-1.686-0.374-2.62-0.374-0 0-0.001 0-0.001 0h0c-1.553 0-2.732 0.291-3.536 0.874-0.776 0.582-1.165 1.4-1.165 2.454 0 0.804 0.25 1.442 0.749 1.914s1.248 0.874 2.246 1.206c0.998 0.333 2.246 0.693 3.744 1.082 1.941 0.472 3.619 1.054 5.034 1.747 1.442 0.666 2.538 1.553 3.286 2.662 0.777 1.082 1.165 2.524 1.165 4.326 0 1.581-0.291 2.94-0.874 4.077-0.582 1.109-1.387 2.011-2.413 2.704s-2.191 1.206-3.494 1.539c-1.303 0.305-2.69 0.458-4.16 0.458s-2.94-0.152-4.41-0.458c-1.47-0.305-2.884-0.735-4.243-1.29-1.359-0.582-2.607-1.276-3.744-2.080l2.538-4.95c0.25 0.25 0.693 0.582 1.331 0.998 0.638 0.388 1.414 0.79 2.33 1.206 0.915 0.388 1.914 0.721 2.995 0.998s2.177 0.416 3.286 0.416c1.553 0 2.732-0.264 3.536-0.79s1.206-1.276 1.206-2.246c0-0.888-0.319-1.581-0.957-2.080s-1.525-0.929-2.662-1.29c-1.137-0.388-2.482-0.804-4.035-1.248-1.858-0.527-3.411-1.109-4.659-1.747-1.248-0.666-2.177-1.498-2.787-2.496s-0.915-2.246-0.915-3.744c0-2.024 0.472-3.716 1.414-5.075 0.971-1.387 2.274-2.427 3.91-3.12 1.636-0.721 3.453-1.082 5.45-1.082 1.387 0 2.69 0.152 3.91 0.458 1.248 0.305 2.413 0.707 3.494 1.206s2.052 1.040 2.912 1.622l-2.538 4.659zM137.755 29.277c-0.472 0.194-1.040 0.416-1.706 0.666s-1.387 0.444-2.163 0.582c-0.749 0.166-1.512 0.25-2.288 0.25-1.026 0-1.969-0.18-2.829-0.541s-1.553-0.929-2.080-1.706c-0.499-0.804-0.749-1.844-0.749-3.12v-12.522h-2.87v-4.285h2.87v-7.072h5.574v7.072h4.576v4.285h-4.576v10.65c0.028 0.749 0.236 1.29 0.624 1.622s0.874 0.499 1.456 0.499 1.151-0.097 1.706-0.291c0.555-0.194 0.998-0.36 1.331-0.499l1.123 4.41zM141.698 22.246v-13.645h5.574v12.438c0 1.664 0.305 2.926 0.915 3.786 0.61 0.832 1.511 1.248 2.704 1.248 0.721 0 1.428-0.139 2.122-0.416 0.721-0.305 1.373-0.749 1.955-1.331 0.61-0.582 1.123-1.317 1.539-2.205v-13.52h5.574v15.558c0 0.582 0.098 0.998 0.291 1.248 0.222 0.25 0.568 0.402 1.040 0.458v4.534c-0.555 0.083-1.026 0.139-1.414 0.166-0.36 0.056-0.693 0.083-0.998 0.083-0.998 0-1.816-0.222-2.454-0.666-0.61-0.472-0.971-1.109-1.082-1.914l-0.125-1.747c-0.971 1.47-2.219 2.593-3.744 3.37-1.525 0.749-3.203 1.123-5.034 1.123-2.246 0-3.952-0.721-5.117-2.163-1.165-1.47-1.747-3.605-1.747-6.406zM167.538 19.501c0-2.108 0.416-4.008 1.248-5.699 0.832-1.72 1.984-3.078 3.453-4.077 1.47-0.998 3.149-1.498 5.034-1.498 1.61 0 3.051 0.402 4.326 1.206 1.304 0.776 2.317 1.775 3.037 2.995v-12.397h5.574v24.128c0 0.582 0.098 0.998 0.291 1.248 0.195 0.25 0.528 0.402 0.998 0.458v4.534c-0.97 0.194-1.76 0.291-2.371 0.291-0.998 0-1.83-0.25-2.496-0.749-0.637-0.499-0.998-1.151-1.082-1.955l-0.083-1.373c-0.803 1.359-1.899 2.399-3.286 3.12-1.358 0.721-2.787 1.082-4.285 1.082s-2.883-0.291-4.16-0.874c-1.248-0.582-2.342-1.387-3.286-2.413-0.915-1.026-1.635-2.219-2.163-3.578-0.499-1.387-0.749-2.87-0.749-4.451zM184.635 22.413v-5.2c-0.277-0.804-0.72-1.525-1.331-2.163-0.61-0.638-1.29-1.137-2.038-1.498-0.749-0.388-1.498-0.582-2.246-0.582-0.859 0-1.635 0.18-2.33 0.541-0.693 0.36-1.302 0.846-1.83 1.456-0.499 0.61-0.886 1.317-1.165 2.122-0.25 0.804-0.374 1.65-0.374 2.538s0.139 1.733 0.416 2.538c0.306 0.776 0.736 1.456 1.29 2.038 0.555 0.582 1.194 1.040 1.914 1.373 0.749 0.333 1.554 0.499 2.413 0.499 0.528 0 1.054-0.083 1.581-0.25 0.555-0.194 1.069-0.444 1.539-0.749 0.499-0.333 0.93-0.721 1.29-1.165 0.389-0.472 0.68-0.971 0.874-1.498zM196.93 30.4v-21.798h5.574v21.798h-5.574zM196.93 5.565v-5.533h5.574v5.533h-5.574zM218.848 30.816c-1.774 0-3.37-0.291-4.784-0.874-1.414-0.61-2.621-1.442-3.619-2.496-0.971-1.054-1.72-2.26-2.246-3.619s-0.79-2.787-0.79-4.285c0-1.525 0.264-2.968 0.79-4.326s1.275-2.565 2.246-3.619c0.998-1.054 2.205-1.872 3.619-2.454 1.414-0.61 3.010-0.915 4.784-0.915s3.355 0.305 4.742 0.915c1.414 0.582 2.621 1.4 3.619 2.454s1.747 2.26 2.246 3.619c0.526 1.359 0.79 2.801 0.79 4.326 0 1.498-0.264 2.926-0.79 4.285-0.499 1.359-1.248 2.565-2.246 3.619-0.971 1.054-2.163 1.886-3.578 2.496-1.414 0.582-3.010 0.874-4.784 0.874zM213.149 19.542c0 1.276 0.25 2.413 0.749 3.411 0.499 0.971 1.179 1.733 2.038 2.288s1.83 0.832 2.912 0.832c1.054 0 2.011-0.277 2.87-0.832 0.859-0.582 1.539-1.359 2.038-2.33 0.526-0.998 0.79-2.136 0.79-3.411 0-1.248-0.264-2.371-0.79-3.37-0.499-0.998-1.179-1.775-2.038-2.33s-1.816-0.832-2.87-0.832c-1.082 0-2.053 0.291-2.912 0.874-0.859 0.555-1.539 1.331-2.038 2.33-0.499 0.971-0.749 2.094-0.749 3.37z"></path>
</symbol>
</defs>
</svg>
