<!-- Generated by IcoMoon.io -->
<svg version="1.1" xmlns="http://www.w3.org/2000/svg" width="230" height="32" viewBox="0 0 230 32">
<title>WebStudio-2</title>
<path d="M13.187 0.947h5.325l3.37 9.776 3.411-9.776h5.283l-5.075 13.437 3.744 9.402 8.362-22.922h6.24l-11.814 29.536h-4.95l-5.2-12.397-5.158 12.397h-4.95l-11.773-29.536h6.157l8.403 22.922 3.661-9.402-5.034-13.437zM54.763 30.816c-1.747 0-3.328-0.291-4.742-0.874-1.414-0.61-2.621-1.428-3.619-2.454-0.998-1.054-1.775-2.246-2.33-3.578-0.527-1.359-0.79-2.787-0.79-4.285 0-2.080 0.458-3.98 1.373-5.699 0.943-1.72 2.274-3.092 3.994-4.118 1.747-1.054 3.799-1.581 6.157-1.581 2.385 0 4.423 0.527 6.115 1.581 1.692 1.026 2.981 2.399 3.869 4.118 0.915 1.692 1.373 3.522 1.373 5.491 0 0.333-0.014 0.68-0.042 1.040-0.028 0.333-0.056 0.61-0.083 0.832h-16.848c0.111 1.109 0.43 2.080 0.957 2.912 0.555 0.832 1.248 1.47 2.080 1.914 0.86 0.416 1.775 0.624 2.746 0.624 1.109 0 2.149-0.264 3.12-0.79 0.998-0.555 1.678-1.276 2.038-2.163l4.784 1.331c-0.527 1.109-1.29 2.094-2.288 2.954-0.971 0.86-2.122 1.539-3.453 2.038-1.331 0.472-2.801 0.707-4.41 0.707zM49.064 17.754h11.398c-0.111-1.109-0.43-2.066-0.957-2.87-0.499-0.832-1.165-1.47-1.997-1.914-0.832-0.472-1.761-0.707-2.787-0.707-0.998 0-1.914 0.236-2.746 0.707-0.804 0.444-1.47 1.082-1.997 1.914-0.499 0.804-0.804 1.761-0.915 2.87zM83.202 30.816c-1.664 0-3.148-0.374-4.451-1.123s-2.33-1.775-3.078-3.078v3.786h-4.867v-30.368h5.574v12.397c0.777-1.304 1.789-2.33 3.037-3.078 1.276-0.749 2.76-1.123 4.451-1.123 1.414 0 2.704 0.305 3.869 0.915 1.165 0.582 2.163 1.4 2.995 2.454 0.86 1.054 1.512 2.26 1.955 3.619 0.472 1.359 0.707 2.815 0.707 4.368s-0.263 3.009-0.79 4.368c-0.499 1.359-1.206 2.565-2.122 3.619-0.915 1.026-1.997 1.83-3.245 2.413-1.22 0.555-2.565 0.832-4.035 0.832zM81.663 26.074c0.888 0 1.692-0.166 2.413-0.499 0.749-0.36 1.387-0.832 1.914-1.414 0.555-0.582 0.971-1.262 1.248-2.038 0.29-0.738 0.458-1.592 0.458-2.486 0-0.004 0-0.007 0-0.011v0.001c0-1.192-0.25-2.288-0.749-3.286-0.471-1.026-1.137-1.844-1.997-2.454-0.832-0.61-1.816-0.915-2.954-0.915-0.804 0-1.581 0.194-2.33 0.582-0.721 0.36-1.373 0.86-1.955 1.498-0.555 0.638-0.998 1.359-1.331 2.163v5.2c0.166 0.555 0.43 1.054 0.79 1.498 0.388 0.444 0.832 0.832 1.331 1.165 0.499 0.305 1.012 0.555 1.539 0.749 0.555 0.166 1.096 0.25 1.622 0.25z"></path>
<path d="M116.557 8.602c-0.194-0.194-0.555-0.458-1.082-0.79-0.499-0.333-1.123-0.652-1.872-0.957-0.721-0.305-1.511-0.568-2.371-0.79-0.785-0.238-1.686-0.374-2.62-0.374-0 0-0.001 0-0.001 0h0c-1.553 0-2.732 0.291-3.536 0.874-0.776 0.582-1.165 1.4-1.165 2.454 0 0.804 0.25 1.442 0.749 1.914s1.248 0.874 2.246 1.206c0.998 0.333 2.246 0.693 3.744 1.082 1.941 0.472 3.619 1.054 5.034 1.747 1.442 0.666 2.538 1.553 3.286 2.662 0.777 1.082 1.165 2.524 1.165 4.326 0 1.581-0.291 2.94-0.874 4.077-0.582 1.109-1.387 2.011-2.413 2.704s-2.191 1.206-3.494 1.539c-1.303 0.305-2.69 0.458-4.16 0.458s-2.94-0.152-4.41-0.458c-1.47-0.305-2.884-0.735-4.243-1.29-1.359-0.582-2.607-1.276-3.744-2.080l2.538-4.95c0.25 0.25 0.693 0.582 1.331 0.998 0.638 0.388 1.414 0.79 2.33 1.206 0.915 0.388 1.914 0.721 2.995 0.998s2.177 0.416 3.286 0.416c1.553 0 2.732-0.264 3.536-0.79s1.206-1.276 1.206-2.246c0-0.888-0.319-1.581-0.957-2.080s-1.525-0.929-2.662-1.29c-1.137-0.388-2.482-0.804-4.035-1.248-1.858-0.527-3.411-1.109-4.659-1.747-1.248-0.666-2.177-1.498-2.787-2.496s-0.915-2.246-0.915-3.744c0-2.024 0.472-3.716 1.414-5.075 0.971-1.387 2.274-2.427 3.91-3.12 1.636-0.721 3.453-1.082 5.45-1.082 1.387 0 2.69 0.152 3.91 0.458 1.248 0.305 2.413 0.707 3.494 1.206s2.052 1.040 2.912 1.622l-2.538 4.659zM137.755 29.277c-0.472 0.194-1.040 0.416-1.706 0.666s-1.387 0.444-2.163 0.582c-0.749 0.166-1.512 0.25-2.288 0.25-1.026 0-1.969-0.18-2.829-0.541s-1.553-0.929-2.080-1.706c-0.499-0.804-0.749-1.844-0.749-3.12v-12.522h-2.87v-4.285h2.87v-7.072h5.574v7.072h4.576v4.285h-4.576v10.65c0.028 0.749 0.236 1.29 0.624 1.622s0.874 0.499 1.456 0.499 1.151-0.097 1.706-0.291c0.555-0.194 0.998-0.36 1.331-0.499l1.123 4.41zM141.698 22.246v-13.645h5.574v12.438c0 1.664 0.305 2.926 0.915 3.786 0.61 0.832 1.511 1.248 2.704 1.248 0.721 0 1.428-0.139 2.122-0.416 0.721-0.305 1.373-0.749 1.955-1.331 0.61-0.582 1.123-1.317 1.539-2.205v-13.52h5.574v15.558c0 0.582 0.098 0.998 0.291 1.248 0.222 0.25 0.568 0.402 1.040 0.458v4.534c-0.555 0.083-1.026 0.139-1.414 0.166-0.36 0.056-0.693 0.083-0.998 0.083-0.998 0-1.816-0.222-2.454-0.666-0.61-0.472-0.971-1.109-1.082-1.914l-0.125-1.747c-0.971 1.47-2.219 2.593-3.744 3.37-1.525 0.749-3.203 1.123-5.034 1.123-2.246 0-3.952-0.721-5.117-2.163-1.165-1.47-1.747-3.605-1.747-6.406zM167.538 19.501c0-2.108 0.416-4.008 1.248-5.699 0.832-1.72 1.984-3.078 3.453-4.077 1.47-0.998 3.149-1.498 5.034-1.498 1.61 0 3.051 0.402 4.326 1.206 1.304 0.776 2.317 1.775 3.037 2.995v-12.397h5.574v24.128c0 0.582 0.098 0.998 0.291 1.248 0.195 0.25 0.528 0.402 0.998 0.458v4.534c-0.97 0.194-1.76 0.291-2.371 0.291-0.998 0-1.83-0.25-2.496-0.749-0.637-0.499-0.998-1.151-1.082-1.955l-0.083-1.373c-0.803 1.359-1.899 2.399-3.286 3.12-1.358 0.721-2.787 1.082-4.285 1.082s-2.883-0.291-4.16-0.874c-1.248-0.582-2.342-1.387-3.286-2.413-0.915-1.026-1.635-2.219-2.163-3.578-0.499-1.387-0.749-2.87-0.749-4.451zM184.635 22.413v-5.2c-0.277-0.804-0.72-1.525-1.331-2.163-0.61-0.638-1.29-1.137-2.038-1.498-0.749-0.388-1.498-0.582-2.246-0.582-0.859 0-1.635 0.18-2.33 0.541-0.693 0.36-1.302 0.846-1.83 1.456-0.499 0.61-0.886 1.317-1.165 2.122-0.25 0.804-0.374 1.65-0.374 2.538s0.139 1.733 0.416 2.538c0.306 0.776 0.736 1.456 1.29 2.038 0.555 0.582 1.194 1.040 1.914 1.373 0.749 0.333 1.554 0.499 2.413 0.499 0.528 0 1.054-0.083 1.581-0.25 0.555-0.194 1.069-0.444 1.539-0.749 0.499-0.333 0.93-0.721 1.29-1.165 0.389-0.472 0.68-0.971 0.874-1.498zM196.93 30.4v-21.798h5.574v21.798h-5.574zM196.93 5.565v-5.533h5.574v5.533h-5.574zM218.848 30.816c-1.774 0-3.37-0.291-4.784-0.874-1.414-0.61-2.621-1.442-3.619-2.496-0.971-1.054-1.72-2.26-2.246-3.619s-0.79-2.787-0.79-4.285c0-1.525 0.264-2.968 0.79-4.326s1.275-2.565 2.246-3.619c0.998-1.054 2.205-1.872 3.619-2.454 1.414-0.61 3.010-0.915 4.784-0.915s3.355 0.305 4.742 0.915c1.414 0.582 2.621 1.4 3.619 2.454s1.747 2.26 2.246 3.619c0.526 1.359 0.79 2.801 0.79 4.326 0 1.498-0.264 2.926-0.79 4.285-0.499 1.359-1.248 2.565-2.246 3.619-0.971 1.054-2.163 1.886-3.578 2.496-1.414 0.582-3.010 0.874-4.784 0.874zM213.149 19.542c0 1.276 0.25 2.413 0.749 3.411 0.499 0.971 1.179 1.733 2.038 2.288s1.83 0.832 2.912 0.832c1.054 0 2.011-0.277 2.87-0.832 0.859-0.582 1.539-1.359 2.038-2.33 0.526-0.998 0.79-2.136 0.79-3.411 0-1.248-0.264-2.371-0.79-3.37-0.499-0.998-1.179-1.775-2.038-2.33s-1.816-0.832-2.87-0.832c-1.082 0-2.053 0.291-2.912 0.874-0.859 0.555-1.539 1.331-2.038 2.33-0.499 0.971-0.749 2.094-0.749 3.37z"></path>
</svg>
